# xmcd
# 
# Track frame offsets:
#     150
#     2818
#     20812
#     31892
#     58093
#     72806
#     85557
#     90088
#     106200
#     109774
#     121993
#     123719
#     140186
#     142536
#     149810
#     163627
#     178295
#     191988
#     208041
#     218380
#     230888
#     233365
#     246341
#     261074
#     263171
#     281275
#     283176
#     297544
#     305200
# 
# Disc length: 4274
# 
# Revision: 2
# Processed by: cddbd v1.5.2PL0 Copyright (c) Steve Scherf et al.
# Submitted via: fre:ac v1.1beta1pre4
# 
DISCID=ba10b01d
DTITLE=Roy Book Binder - Live at the Fur Peace Station
DYEAR=2004
DGENRE=Blues
TTITLE0=Jorma Intro>
TTITLE1=What You Gonna Do
TTITLE2=Baby Let Me Lay It On You
TTITLE3=Talkin' About Rev. Davis>
TTITLE4=Delia
TTITLE5=Jelly Roll
TTITLE6=Talkin' About The Trip>
TTITLE7=Three Times Seven
TTITLE8=Talkin' About My Pals>
TTITLE9=Full Go Around
TTITLE10=Talkin' About William Moore>
TTITLE11=Ragtime Millionaire
TTITLE12=Talkin' About Dave Van Ronk>
TTITLE13=Yas, Yas, Yas
TTITLE14=Cocaine Blues
TTITLE15=Talkin' About Pink Anderson>
TTITLE16=CC and O Blues
TTITLE17=Travelin' Man
TTITLE18=Talkin' About The Blues Revival>
TTITLE19=Mermaids Flirt With Me
TTITLE20=Talkin' About Larry Johnson>
TTITLE21=Charlie Stone
TTITLE22=Won't You Be Kind
TTITLE23=Talkin' About Billy Joe Shaver>
TTITLE24=Chunk Of Coal
TTITLE25=Talkin' About Jimmy Murphy>
TTITLE26=Electricity
TTITLE27=Talkin' About Jesse Thomas>
TTITLE28=Another Friend Like Me
EXTD=YEAR: 2004
EXTT0=
EXTT1=
EXTT2=
EXTT3=
EXTT4=
EXTT5=
EXTT6=
EXTT7=
EXTT8=
EXTT9=
EXTT10=
EXTT11=
EXTT12=
EXTT13=
EXTT14=
EXTT15=
EXTT16=
EXTT17=
EXTT18=
EXTT19=
EXTT20=
EXTT21=
EXTT22=
EXTT23=
EXTT24=
EXTT25=
EXTT26=
EXTT27=
EXTT28=
PLAYORDER=
